<?xml version="1.0" standalone="no"?>
<!DOCTYPE svg PUBLIC "-//W3C//DTD SVG 20010904//EN"
 "http://www.w3.org/TR/2001/REC-SVG-20010904/DTD/svg10.dtd">
<svg version="1.0" xmlns="http://www.w3.org/2000/svg"
 width="500.000000pt" height="500.000000pt" viewBox="0 0 500.000000 500.000000"
 preserveAspectRatio="xMidYMid meet">
<metadata>
Created by potrace 1.11, written by Peter Selinger 2001-2013
</metadata>
<g transform="translate(0.000000,500.000000) scale(0.100000,-0.100000)"
fill="#000000" stroke="none">
<path d="M3415 4986 c-107 -25 -201 -98 -259 -202 -24 -44 -56 -134 -121 -349
-20 -66 -41 -133 -46 -150 -10 -28 -34 -105 -124 -400 -20 -66 -39 -122 -42
-125 -2 -3 -87 -5 -187 -5 l-183 -1 -11 78 c-12 83 -62 240 -85 267 -8 9 -17
24 -20 34 -12 34 -85 133 -143 193 -175 183 -413 287 -659 288 -427 1 -795
-268 -927 -679 -27 -85 -33 -142 -32 -290 1 -195 52 -357 162 -517 126 -181
347 -333 543 -372 13 -2 48 -9 78 -15 29 -6 57 -8 62 -5 11 7 10 145 13 -1156
1 -624 5 -1145 9 -1158 15 -54 21 -70 45 -121 61 -131 187 -237 335 -282 55
-17 109 -18 679 -18 649 0 691 2 758 44 19 12 46 26 60 30 14 4 39 18 57 31
17 13 41 24 52 24 23 0 85 58 110 104 9 17 25 54 35 81 22 61 44 114 57 138 7
13 14 1735 8 2087 -1 45 0 960 0 983 1 16 2 31 2 35 1 4 1 37 0 73 -1 51 -6
70 -21 87 -20 22 -25 22 -315 22 -162 0 -295 3 -295 8 0 4 14 52 31 107 17 55
32 107 34 115 1 8 10 38 19 65 8 28 36 120 61 205 130 439 141 466 213 530 52
46 119 65 206 57 129 -10 150 -27 583 -476 149 -153 164 -162 217 -127 32 21
44 77 23 109 -39 58 -412 433 -542 546 -121 104 -283 143 -440 107z"/>
</g>
</svg>
