<svg xmlns="http://www.w3.org/2000/svg" viewBox="0 0 100 19.7"><path fill="#FFF" d="M3.7 2.8c-.2 0-.3.1-.3.3v.6c0 .2.1.3.3.3.2 0 .3-.2.3-.3v-.6c0-.2-.1-.3-.3-.3zm-1.3.7c-.1-.1-.3-.1-.4 0s-.2.3 0 .4l.4.4s.1.1.2.1c0 0 .1 0 .2-.1s.1-.3 0-.4l-.4-.4zm.1 1.7c0-.1-.2-.2-.3-.2h-.6c-.2 0-.3.1-.3.2s.1.3.3.3h.6c.1.1.3-.1.3-.3zm-.1.9l-.4.4c-.2.2-.2.3 0 .5h.2s.1 0 .2-.1l.5-.4c.1-.1.1-.3-.1-.4-.1-.1-.3-.1-.4 0zM5 3.5l-.5.4c-.1.1-.1.3 0 .4 0 0 .1.1.2.1 0 0 .1 0 .2-.1l.5-.4c.1-.1.1-.3 0-.4-.1-.1-.2-.1-.4 0zm10-.9s-1.4-1.5-2-2c-.3-.4-.8-.6-1.3-.6-.9 0-1.5.5-1.8 1.6L8.9 5H7.4c-.1-2-1.7-3.5-3.7-3.5C1.7 1.6 0 3.2 0 5.2s1.5 3.5 3.4 3.7v8.7c0 1.2.9 2.1 2.1 2.1h4.6c.1 0 .2 0 .3-.1.1 0 .2-.1.3-.1.1 0 .2-.1.3-.2l.1-.1.1-.1V5.2c.9-.1.8-.2.6-.2H9.6l.9-3.2c.3-.9.6-1.1 1.2-1.1.3 0 .6.1.9.4.6.6 1.9 2 1.9 2 .1.1.3.1.4 0 .3-.2.3-.4.1-.5zm-6.3 3l-.2.6H4v-.6h4.7zm-5.3-.4v3.1C1.8 8.2.6 6.9.6 5.2.6 3.5 2 2.1 3.7 2.1c1.6 0 2.9 1.2 3.1 2.8H3.7c-.2 0-.3.2-.3.3zm8 12.4v.4c0 .1 0 .2-.1.3 0 .1-.1.1-.1.2l-.2.2s-.1.1-.2.1h-.1s-.1 0-.1.1H5.5c-.9 0-1.6-.7-1.6-1.6v-3.9c.6.4 1.4.8 2.1.8.9 0 1.6-.5 2.2-1 .6-.5 1.1-.9 1.8-.9.5 0 .8.1 1.2.5l.2 4.8zm0-12v6.8c-.3-.2-.7-.3-1.2-.3-.9 0-1.6.5-2.2 1-.6.5-1.1.9-1.8.9s-1.4-.4-2.1-.8H4V6.8h4.3l-1.6 5.1c0 .1 0 .3.2.4H7c.1 0 .2-.1.3-.2l2-6.4h2.1v-.1zM9.9 6.8h.6c.2 0 .3-.1.3-.3s-.1-.3-.3-.3h-.6c-.2 0-.3.1-.3.3s.1.3.3.3zM6.2 18.2c-1.1 0-1.2-.5-1.2-.9v-1.8c0-.2-.1-.3-.3-.3-.2 0-.3.1-.3.3v1.8c0 .6.2 1.6 1.8 1.6.2 0 .3-.1.3-.3 0-.3-.2-.4-.3-.4zm1.8 0h-.6c-.2 0-.3.1-.3.3 0 .2.1.3.3.3H8c.2 0 .3-.1.3-.3.1-.2-.1-.3-.3-.3zm16.8.2c-1.1.8-2.4 1.3-4.1 1.3-3.5 0-5.6-2.9-5.6-6.4v-.8h1.8c.1-2.1 1.5-4.2 3.7-4.2 1.1 0 1.7.2 2.4.7l.5-.9c-.9-.5-1.8-.8-3-.8-2.6 0-4.1 1.9-4.6 4.2h-.7c.5-2.6 2.3-4.9 5.3-4.9 1.6 0 2.8.4 3.9 1.3L23.2 10c-.9-.6-1.5-1-2.7-1-1.9 0-3 2-3 4v.2h-1.8c0 3 1.6 5.7 4.9 5.7 1.1 0 2.1-.3 3.2-.8l-.5-.9c-.7.4-1.6.8-2.6.8-2.3 0-3.5-1.8-3.8-3.8h.7c.2 1.7 1.2 3.1 3.1 3.1 1.1 0 2-.5 2.9-1l1.2 2.1zm12.9-5.3c0 3.6-2 6.6-5.6 6.6-3.6 0-5.6-3-5.6-6.6s2-6.6 5.6-6.6h.4v1.7c2.4.2 3.5 2.6 3.5 4.9 0 2.4-1.2 4.9-3.8 4.9-2.6 0-3.8-2.5-3.8-4.9 0-1.8.8-3.8 2.4-4.6v.8c-1.2.8-1.7 2.4-1.7 3.8 0 1.8.8 4.2 3.1 4.2s3.1-2.4 3.1-4.2S34.4 9 32.2 9h-.4V7.3c-3.1.2-4.5 3-4.5 5.8 0 2.9 1.5 5.9 4.9 5.9 3.4 0 4.9-2.9 4.9-5.9 0-2.5-1.1-4.9-3.5-5.6v-.7c2.6.7 4.1 3.3 4.1 6.3zm11.8 5.3c-1.1.8-2.4 1.3-4.1 1.3-3.5 0-5.6-2.9-5.6-6.4v-.8h1.8c.1-2.1 1.5-4.2 3.7-4.2 1.1 0 1.7.2 2.4.7l.5-.9c-.9-.5-1.8-.8-3-.8-2.6 0-4.1 1.9-4.6 4.2h-.7c.5-2.6 2.3-4.9 5.3-4.9 1.6 0 2.8.4 3.9 1.3L47.9 10c-.9-.6-1.5-1-2.7-1-1.9 0-3 2-3 4v.2h-1.8c0 3 1.6 5.7 4.9 5.7 1.1 0 2.1-.3 3.2-.8l-.5-.7c-.7.4-1.6.8-2.6.8-2.3 0-3.5-1.8-3.8-3.8h.7c.2 1.7 1.2 3.1 3.1 3.1 1.1 0 2-.5 2.9-1l1.2 1.9zm12.6 1.1h-3.3l-3.4-4v-1.1l3.7 4.4h1.4L55.4 13 60 7.6h-1.3l-4.3 5.1v6.9h-2.5V6.8h2.5V10l-.7.9V7.5h-1.1v11.3h1.1v-6.4l4.8-5.6h3.2l-5.2 6.1 5.6 6.6zM72.3 6.8v2.4H70v-.7h1.5v-1h-2.6v12.1h-2.5V7.5h-2.6v1h1.6v.7h-2.3V6.8h4.1v12.1h1.1V6.8h4zm12.2 12.7h-2.6l-1.1-3.2h-6.1l-.9 2.5h1.1l.6-1.5h.8l-.8 2.2h-2.6l1.4-3.9h7.1l1.1 3.2h1.1L79.4 7.5h-1.5L75.5 14h4.3l-1.3-3.5-.8 2.5h-.8l1.7-4.6 2.3 6.3h-6.4l2.9-7.9h2.5l4.6 12.7zm3-10.3v9.6h1.1v-8.7h.7v9.4h-2.5v-11h1.8v-1h-1.8v-.7h2.5v2.4h-1.8zm12.5 8v2.4h-7v-.7h6.3v-1H93V6.8h2.5v9.4h-.7V7.5h-1.1v9.6h6.3z"/></svg>