<?xml version="1.0" standalone="no"?>
<!DOCTYPE svg PUBLIC "-//W3C//DTD SVG 20010904//EN"
 "http://www.w3.org/TR/2001/REC-SVG-20010904/DTD/svg10.dtd">
<svg version="1.0" xmlns="http://www.w3.org/2000/svg"
 width="500.000000pt" height="500.000000pt" viewBox="0 0 500.000000 500.000000"
 preserveAspectRatio="xMidYMid meet">
<metadata>
Created by potrace 1.11, written by Peter Selinger 2001-2013
</metadata>
<g transform="translate(0.000000,500.000000) scale(0.100000,-0.100000)"
fill="#000000" stroke="none">
<path d="M3267 4538 c-79 -17 -141 -61 -196 -137 -25 -35 -96 -226 -117 -311
-2 -8 -31 -105 -64 -215 -34 -110 -72 -234 -84 -275 l-23 -75 -155 -2 c-147
-1 -154 0 -155 18 -12 158 -111 360 -230 470 -96 89 -201 150 -321 185 -72 22
-107 26 -207 26 -123 1 -141 -2 -234 -28 -185 -53 -368 -201 -459 -372 -59
-111 -84 -205 -88 -337 -4 -131 8 -202 52 -317 94 -246 335 -437 599 -474 22
-4 42 -8 45 -11 3 -2 5 -424 6 -936 0 -724 3 -942 13 -977 36 -124 127 -233
246 -291 l70 -34 551 -3 c607 -3 563 -6 711 64 88 41 135 85 170 161 50 107
48 63 48 1481 l-1 1332 -20 21 c-20 20 -32 21 -258 21 -262 0 -251 -3 -225 65
6 15 13 35 15 43 4 15 15 51 94 310 23 74 53 173 67 220 37 125 72 190 122
225 40 28 49 30 129 30 130 0 126 3 506 -384 127 -128 147 -140 186 -101 27
27 25 52 -7 92 -67 81 -428 436 -469 461 -100 60 -206 79 -317 55z m-1417
-458 c128 -33 218 -85 310 -180 88 -92 156 -224 174 -336 l6 -42 -331 0 c-318
-1 -332 -1 -353 -21 -21 -20 -21 -25 -21 -352 l1 -331 -49 6 c-153 21 -327
135 -422 279 -36 55 -81 156 -90 204 -2 15 -7 39 -10 53 -7 33 -7 169 0 200 3
14 7 34 9 45 3 11 11 39 20 63 73 202 248 361 454 412 85 22 218 22 302 0z
m1448 -689 c9 -1 12 -150 12 -712 0 -568 -3 -709 -12 -702 -37 29 -138 56
-224 59 -162 6 -235 -26 -499 -221 -134 -98 -170 -120 -246 -145 -70 -24 -143
-25 -224 -5 -55 14 -277 118 -317 149 -17 12 -18 58 -18 661 0 356 2 650 5
654 11 11 893 7 889 -4 -4 -12 -127 -421 -159 -530 -13 -44 -53 -177 -89 -295
-36 -118 -66 -224 -66 -236 0 -49 74 -74 111 -38 15 15 50 112 74 204 2 8 57
186 121 395 64 209 142 465 174 569 38 127 63 192 73 195 13 5 337 6 395 2z
m-559 -15 c0 -6 -8 -33 -17 -61 l-17 -50 -467 -1 -468 -1 0 62 0 61 485 0
c333 0 485 -3 484 -10z m455 -1495 c28 -12 64 -32 80 -45 l31 -23 0 -509 0
-509 -26 -55 c-44 -93 -141 -170 -236 -187 -21 -3 -259 -6 -528 -6 l-491 -1
-55 26 c-76 34 -133 88 -165 155 -35 71 -40 150 -36 609 l2 344 38 -23 c179
-111 391 -160 524 -120 108 32 161 62 341 195 206 153 268 180 392 175 55 -2
96 -10 129 -26z"/>
<path d="M1659 3951 c-21 -17 -23 -28 -24 -97 -1 -80 14 -133 38 -135 6 0 20
-2 30 -4 20 -4 57 31 58 54 3 68 1 150 -5 168 -6 19 -32 32 -62 33 -7 0 -22
-8 -35 -19z"/>
<path d="M1360 3832 c-23 -8 -39 -34 -40 -61 0 -35 117 -151 153 -151 33 0 70
45 61 74 -8 27 -113 133 -139 139 -11 3 -27 3 -35 -1z"/>
<path d="M1992 3826 c-42 -22 -132 -118 -132 -140 1 -31 23 -55 56 -62 25 -5
38 2 93 52 35 32 67 67 71 79 7 20 -12 74 -28 76 -4 0 -14 2 -23 4 -8 1 -25
-2 -37 -9z"/>
<path d="M1280 3522 c-53 -6 -69 -13 -76 -35 -14 -41 -13 -49 12 -72 21 -20
34 -22 110 -21 77 1 88 3 105 25 20 24 19 65 -1 85 -11 11 -108 23 -150 18z"/>
<path d="M1447 3288 c-39 -21 -127 -122 -127 -145 0 -31 34 -63 66 -63 27 0
119 82 143 128 24 46 -37 106 -82 80z"/>
<path d="M2979 3258 c-38 -7 -49 -22 -49 -65 0 -44 34 -60 120 -58 97 3 98 3
116 30 20 31 12 70 -17 86 -25 13 -123 17 -170 7z"/>
<path d="M1869 1393 c-36 -9 -40 -42 -37 -294 3 -225 5 -248 25 -291 11 -25
34 -59 50 -75 33 -34 93 -77 93 -67 0 3 6 2 13 -3 11 -9 37 -17 92 -29 11 -2
46 -5 79 -6 50 -2 61 1 77 21 40 49 10 101 -61 106 -118 7 -162 23 -207 74
-30 34 -35 74 -37 321 -1 210 -1 212 -25 231 -23 19 -31 21 -62 12z"/>
<path d="M2433 733 c-29 -28 -29 -64 -3 -88 16 -14 38 -19 88 -20 108 -2 146
15 144 65 -1 53 -19 63 -119 64 -79 2 -90 -1 -110 -21z"/>
</g>
</svg>
